<svg width="16" height="16" viewBox="0 0 16 16" fill="none" xmlns="http://www.w3.org/2000/svg">
<path d="M1.20007 1C1.83088 1.2318 2.69576 1.41192 3.08488 2.00549C3.35544 2.41969 3.35544 2.96917 3.35544 4.0689V6.13763C3.35544 8.37356 3.4018 9.11076 4.03337 9.80541C4.66417 10.5 5.68106 10.5 7.71331 10.5H11.5779C13.6041 10.5 14.0434 10.0433 14.4325 8.07336C14.6027 7.21455 14.7745 6.36639 14.8611 5.50986C15.0253 3.88801 14.1217 3.37121 12.683 3.37121H3.35544M11.4601 14.6801C11.7625 14.6801 12.0524 14.56 12.2662 14.3462C12.48 14.1324 12.6001 13.8424 12.6001 13.5401C12.6001 13.2377 12.48 12.9478 12.2662 12.734C12.0524 12.5202 11.7625 12.4001 11.4601 12.4001C11.1578 12.4001 10.8678 12.5202 10.654 12.734C10.4402 12.9478 10.3201 13.2377 10.3201 13.5401C10.3201 13.8424 10.4402 14.1324 10.654 14.3462C10.8678 14.56 11.1578 14.6801 11.4601 14.6801ZM5.38009 14.6801C5.68244 14.6801 5.97241 14.56 6.1862 14.3462C6.39999 14.1324 6.5201 13.8424 6.5201 13.5401C6.5201 13.2377 6.39999 12.9478 6.1862 12.734C5.97241 12.5202 5.68244 12.4001 5.38009 12.4001C5.07775 12.4001 4.78778 12.5202 4.57399 12.734C4.3602 12.9478 4.24009 13.2377 4.24009 13.5401C4.24009 13.8424 4.3602 14.1324 4.57399 14.3462C4.78778 14.56 5.07775 14.6801 5.38009 14.6801Z" stroke="#4A3C3C" stroke-width="1.14001" stroke-linecap="round" stroke-linejoin="round"/>
</svg>
