<svg width="14" height="14" viewBox="0 0 14 14" fill="none" xmlns="http://www.w3.org/2000/svg">
<path d="M1.28003 11.495C1.28003 10.7392 1.5803 10.0143 2.11478 9.47978C2.64926 8.9453 3.37417 8.64503 4.13004 8.64503H9.83007C10.5859 8.64503 11.3109 8.9453 11.8453 9.47978C12.3798 10.0143 12.6801 10.7392 12.6801 11.495C12.6801 11.873 12.53 12.2354 12.2627 12.5027C11.9955 12.7699 11.633 12.9201 11.2551 12.9201H2.70504C2.3271 12.9201 1.96464 12.7699 1.6974 12.5027C1.43016 12.2354 1.28003 11.873 1.28003 11.495Z" stroke="#4A3C3C" stroke-width="1.14001" stroke-linejoin="round"/>
<path d="M6.98004 5.79503C8.16056 5.79503 9.11755 4.83803 9.11755 3.65752C9.11755 2.477 8.16056 1.52 6.98004 1.52C5.79953 1.52 4.84253 2.477 4.84253 3.65752C4.84253 4.83803 5.79953 5.79503 6.98004 5.79503Z" stroke="#4A3C3C" stroke-width="1.14001"/>
</svg>
