<svg width="59" height="12" viewBox="0 0 59 12" fill="none" xmlns="http://www.w3.org/2000/svg">
<rect width="59" height="12" fill="#1E1E1E"/>
<g id="Home">
<rect width="1280" height="4914" transform="translate(-69 -3962)" fill="white"/>
<g id="Frame 29">
<g id="Frame 13" clip-path="url(#clip0_0_1)">
<rect width="225.52" height="331.232" transform="translate(-18 -252)" fill="#F5FAF8"/>
<g id="Frame 28">
<g id="Frame 27">
<g id="Frame 26">
<g id="Frame 24">
<g id="Group 1000004372">
<path id="Star 1" d="M5.5 0.252441L6.73483 4.05285H10.7308L7.49799 6.40163L8.73282 10.202L5.5 7.85325L2.26718 10.202L3.50201 6.40163L0.269189 4.05285H4.26517L5.5 0.252441Z" fill="#E8B92E"/>
<path id="Star 2" d="M17.5 0.252441L18.7348 4.05285H22.7308L19.498 6.40163L20.7328 10.202L17.5 7.85325L14.2672 10.202L15.502 6.40163L12.2692 4.05285H16.2652L17.5 0.252441Z" fill="#E8B92E"/>
<path id="Star 3" d="M29.5 0.252441L30.7348 4.05285H34.7308L31.498 6.40163L32.7328 10.202L29.5 7.85325L26.2672 10.202L27.502 6.40163L24.2692 4.05285H28.2652L29.5 0.252441Z" fill="#E8B92E"/>
<path id="Star 4" d="M41.5 0.252441L42.7348 4.05285H46.7308L43.498 6.40163L44.7328 10.202L41.5 7.85325L38.2672 10.202L39.502 6.40163L36.2692 4.05285H40.2652L41.5 0.252441Z" fill="#E8B92E"/>
<path id="Star 5" d="M53.5 0.252441L54.7348 4.05285H58.7308L55.498 6.40163L56.7328 10.202L53.5 7.85325L50.2672 10.202L51.502 6.40163L48.2692 4.05285H52.2652L53.5 0.252441Z" fill="#D9D9D9"/>
</g>
</g>
</g>
</g>
</g>
</g>
</g>
</g>
<defs>
<clipPath id="clip0_0_1">
<rect width="225.52" height="331.232" fill="white" transform="translate(-18 -252)"/>
</clipPath>
</defs>
</svg>
